<?xml version="1.0" encoding="utf-8"?>
<!-- Generator: Adobe Illustrator 15.1.0, SVG Export Plug-In . SVG Version: 6.00 Build 0)  -->
<!DOCTYPE svg PUBLIC "-//W3C//DTD SVG 1.1//EN" "http://www.w3.org/Graphics/SVG/1.1/DTD/svg11.dtd">
<svg version="1.1" id="Layer_1" xmlns="http://www.w3.org/2000/svg" xmlns:xlink="http://www.w3.org/1999/xlink" x="0px" y="0px"
	 width="256px" height="256px" viewBox="0 0 256 256" enable-background="new 0 0 256 256" xml:space="preserve">
<g>
	<path d="M210.457,70.239c0.506,5.258,0.843,10.595,0.961,15.795c0.109,5.223,0.054,10.39-0.124,15.522
		c-0.078,2.566-0.197,5.124-0.345,7.675c-0.114,2.55-0.258,5.094-0.42,7.634c-0.38,5.079-0.644,10.141-0.312,15.21l-2.812-0.899
		c1.615-2.639,3.124-5.354,4.635-8.089l4.608-8.243c1.591-2.747,3.199-5.528,5.019-8.234c1.822-2.702,3.77-5.393,6.004-7.958
		l5.795,6.123c-2.307,1.734-4.496,3.75-6.529,5.967c-2.038,2.213-4.007,4.563-5.866,7.029c-1.884,2.449-3.67,5.003-5.504,7.548
		c-1.832,2.546-3.688,5.1-5.622,7.607l-3.317,4.302l0.506-5.201c0.492-5.054,0.389-10.117,0.017-15.164
		c-0.157-2.523-0.335-5.042-0.54-7.553c-0.239-2.511-0.508-5.014-0.814-7.505c-0.633-4.981-1.457-9.918-2.601-14.744
		c-1.135-4.846-2.538-9.5-4.422-14.083L210.457,70.239z"/>
</g>
<linearGradient id="SVGID_1_" gradientUnits="userSpaceOnUse" x1="89.5786" y1="48.751" x2="150.5016" y2="126.1531" gradientTransform="matrix(0.9902 -0.1396 0.1396 0.9902 -16.5974 19.4174)">
	<stop  offset="0" style="stop-color:#00CF93"/>
	<stop  offset="0.4656" style="stop-color:#5DE679"/>
	<stop  offset="1" style="stop-color:#C3FF5C"/>
</linearGradient>
<path fill="url(#SVGID_1_)" d="M169.667,157.364c-17.705,1.976-47.167,2.78-75.666-10.081c-2.847-1.486-5.623-3.117-8.318-4.887
	c-8.083-5.312-15.117-8.811-21.421-16.657c-2.902-3.536-8.417-9.89-10.869-13.756c-7.354-11.599-10.071-24.95-12.521-38.294
	c-0.289-2.674-0.36-5.37-0.198-8.067c0.484-8.088,3.063-16.176,8.13-23.68c0.834-1.288,1.721-2.545,2.659-3.771
	c0.937-1.225,1.925-2.417,2.961-3.573c7.014-7.553,15.51-13.548,24.745-16.996c3.078-1.15,6.238-2.017,9.458-2.567
	C139,13,175.869,57.539,189.785,100.809c1.183,3.338,2.276,7.16,3.202,10.63c3.704,13.881,5.542,28.448-4.4,39.934
	C186.48,152.39,180.002,156.211,169.667,157.364z"/>
<linearGradient id="SVGID_2_" gradientUnits="userSpaceOnUse" x1="114.6245" y1="167.8945" x2="59.4761" y2="220.0348" gradientTransform="matrix(0.9902 -0.1396 0.1396 0.9902 -16.5974 19.4174)">
	<stop  offset="0" style="stop-color:#F7E042"/>
	<stop  offset="1" style="stop-color:#FF691F"/>
</linearGradient>
<path fill="url(#SVGID_2_)" d="M131.187,224.767c8.298-6.234,15.838-13.536,23.073-21.204c1.447-1.533,2.883-3.082,4.309-4.641
	c6.867-7.284,12.961-14.203,18.16-22.567c0.979-1.484,1.937-2.979,2.872-4.482c4.679-7.523,8.792-15.282,12.077-23.32
	c-3.234,5.001-7.355,8.854-12.029,11.741c-1.558,0.959-3.177,1.809-4.841,2.527c-18.664,5.89-38.315,2.602-57.456,1.509
	c-1.94-0.253-3.861-0.524-5.758-0.789c-3.794-0.529-7.493-1.02-11.049-1.391c-4.271-0.382-8.486-0.585-12.621-0.462
	c-12.394,0.37-24.055,3.7-34.129,13.5c-2.386,2.324-4.504,4.871-6.276,7.612s-3.196,5.676-4.195,8.775
	c-1.998,6.199-2.293,13.058-0.256,20.344c0.949,3.148,2.251,6.121,3.855,8.877c1.604,2.757,3.508,5.297,5.661,7.581
	c18.137,16.784,44.869,16.055,65.771,4.708c1.899-1.031,4.077-2.415,5.878-3.625C128,226.994,129.405,226.084,131.187,224.767"/>
<g>
	<path d="M150.946,206.99c-6.01,7.217-12.739,13.894-20.293,19.606c-7.577,5.654-16.1,10.22-25.305,12.875
		c-4.594,1.329-9.344,2.18-14.133,2.468c-0.599,0.037-1.198,0.069-1.797,0.09l-1.757,0.076c-1.221,0.04-2.417,0.041-3.626,0.004
		c-2.413-0.076-4.821-0.309-7.208-0.695c-9.518-1.538-18.823-5.614-25.965-12.434l0.121,0.108
		c-3.889-3.143-6.955-7.291-8.875-11.873c-1.907-4.595-2.74-9.558-2.629-14.444c0.115-4.896,1.196-9.712,3.002-14.205
		c0.917-2.242,2.023-4.408,3.354-6.428c1.309-2.011,2.726-3.948,4.293-5.768c3.123-3.645,6.858-6.785,11.019-9.177
		c4.148-2.409,8.731-4.037,13.346-5.057c9.355-2.192,18.997-1.292,28.239,0.175l-0.05-0.006c11.501,0.885,22.931,2.354,34.409,2.988
		c11.459,0.64,23.025,0.486,34.274-1.757l-0.063,0.016c3.275-1.069,6.445-2.479,9.326-4.347c2.881-1.863,5.441-4.201,7.521-6.91
		c4.195-5.441,6.151-12.304,6.603-19.137c0.275-3.438,0.107-6.867-0.335-10.292c-0.444-3.43-1.093-6.817-1.97-10.17
		c-1.731-6.71-3.995-13.281-6.68-19.669c-1.342-3.189-2.797-6.351-4.339-9.443c-0.774-1.549-1.574-3.086-2.396-4.61l-0.622-1.14
		l-0.619-1.185l-1.212-2.306c-3.266-6.101-6.871-12.032-10.938-17.608c-1.018-1.394-2.063-2.766-3.135-4.114
		c-1.095-1.4-2.142-2.699-3.269-4.02c-2.233-2.615-4.591-5.123-7.065-7.505c-4.947-4.766-10.351-9.053-16.137-12.703
		c-5.786-3.641-11.947-6.678-18.393-8.813c-6.438-2.135-13.161-3.363-19.883-3.415c-6.721-0.067-13.408,1.099-19.705,3.36
		c-0.81,0.286-1.52,0.572-2.394,0.908c-0.796,0.309-1.534,0.611-2.309,0.956c-1.526,0.672-3.017,1.419-4.468,2.234
		c-2.903,1.629-5.638,3.546-8.156,5.712c-5.042,4.329-9.219,9.654-12.272,15.583c-3.066,5.926-5.008,12.425-5.893,19.061
		c-1.777,13.29,1.051,27.171,7.956,38.689l0.053,0.088l0.026,0.051c2.001,3.944,4.316,7.768,6.855,11.376
		c2.585,3.65,5.363,7.108,8.378,10.397c6.024,6.569,12.94,12.33,20.44,17.209c3.758,2.43,7.673,4.627,11.727,6.544
		c4.042,1.942,8.215,3.629,12.5,4.999c8.563,2.756,17.558,4.249,26.627,4.355l0.008,0.27c-9.091,0.57-18.293-0.509-27.149-2.867
		c-4.433-1.174-8.787-2.667-13.021-4.457c-4.228-1.807-8.332-3.909-12.292-6.262c-7.931-4.693-15.209-10.497-21.665-17.121
		c-3.222-3.309-6.242-6.865-8.96-10.584c-2.756-3.768-5.227-7.687-7.413-11.8l0.079,0.139c-7.745-12.272-10.824-27.273-9.054-41.651
		c0.868-7.2,3.023-14.258,6.361-20.73c3.342-6.464,7.903-12.348,13.489-17.065c2.788-2.36,5.81-4.441,9.004-6.2
		c1.597-0.879,3.234-1.683,4.905-2.404c0.821-0.357,1.701-0.71,2.533-1.024c0.756-0.283,1.668-0.64,2.505-0.926
		c6.848-2.417,14.156-3.491,21.382-3.308c7.235,0.184,14.376,1.629,21.131,4.002c6.759,2.38,13.158,5.651,19.078,9.586
		c5.928,3.929,11.406,8.486,16.393,13.512c2.493,2.513,4.86,5.148,7.096,7.888c1.107,1.356,2.217,2.8,3.239,4.172
		c1.067,1.405,2.104,2.832,3.109,4.279c4.017,5.795,7.602,11.855,10.803,18.112l1.182,2.346l0.573,1.143l0.61,1.167
		c0.809,1.559,1.592,3.13,2.35,4.713c1.518,3.176,2.925,6.378,4.233,9.641c2.609,6.517,4.789,13.208,6.428,20.036
		c0.822,3.413,1.477,6.889,1.885,10.383c0.417,3.492,0.555,7.07,0.236,10.586c-0.282,3.522-0.919,7.037-2.064,10.403
		c-1.143,3.363-2.81,6.565-5.002,9.374c-4.396,5.663-10.792,9.415-17.475,11.558l-0.032,0.011l-0.031,0.006
		c-11.381,2.258-23.044,2.396-34.548,1.742c-11.523-0.653-22.977-1.95-34.445-2.763l-0.022-0.002l-0.027-0.004
		c-4.623-0.684-9.268-1.242-13.902-1.333c-4.646-0.092-9.283,0.362-13.752,1.476c-4.517,1.086-8.842,2.722-12.772,5.097
		c-3.93,2.356-7.421,5.402-10.337,8.931c-1.462,1.76-2.794,3.636-3.967,5.604c-1.187,1.937-2.154,4.002-2.941,6.126
		c-1.585,4.25-2.292,8.801-2.189,13.284c0.158,8.97,3.946,17.763,10.727,23.366l0.072,0.06l0.05,0.049
		c6.356,6.315,14.925,10.32,23.858,11.934c2.238,0.405,4.504,0.669,6.78,0.783c1.135,0.057,2.286,0.077,3.41,0.062l1.76-0.043
		c0.574-0.008,1.146-0.028,1.719-0.053c4.581-0.215,9.147-0.865,13.61-1.993c8.937-2.251,17.371-6.416,25.016-11.703
		c7.705-5.239,14.617-11.623,21.066-18.426L150.946,206.99z"/>
</g>
<path fill="none" stroke="#000000" stroke-miterlimit="10" d="M256,0"/>
<path fill="none" stroke="#000000" stroke-miterlimit="10" d="M0,0"/>
<path fill="none" stroke="#000000" stroke-miterlimit="10" d="M0,256"/>
<path fill="none" stroke="#000000" stroke-miterlimit="10" d="M256,256"/>
</svg>
